# xmcd
#
# Track frame offsets: 
#        150
#        29019
#        53592
#        71133
#        92718
#        111879
#        138568
#        158600
#
# Disc length: 2507 seconds
#
# Revision: 0
# Processed by: cddbd v1.5.2PL0 Copyright (c) Steve Scherf et al.
# Submitted via: ExactAudioCopy v1.0b4
#
DISCID=6b09c908
DTITLE=Louisiana Red and Carey Bell - My Life With Carey Bell
DYEAR=1900
DGENRE=Blues
TTITLE0=Arizona Blues
TTITLE1=Prison Blues
TTITLE2=Honorable Discharge
TTITLE3=Keep On Slidin The Blues
TTITLE4=Standing Out Cryin
TTITLE5=Lonesome Train
TTITLE6=Bo-Weavil Blues
TTITLE7=My Life With Carey Bell
EXTD=
EXTT0=
EXTT1=
EXTT2=
EXTT3=
EXTT4=
EXTT5=
EXTT6=
EXTT7=
PLAYORDER=
